<svg width="1500" height="1125" viewBox="0 0 1500 1125" fill="none" xmlns="http://www.w3.org/2000/svg">
<rect width="1500" height="1125" rx="50" fill="white"/>
<path fill-rule="evenodd" clip-rule="evenodd" d="M1028.89 334.4L1168.93 297.893L1088.96 426.583L1028.89 334.4ZM1057.2 344.028L1088.83 390.076L1131.61 323.204L1057.2 344.028Z" fill="#D7F0F7"/>
<path d="M1104.45 385.936L1110.4 392.078" stroke="#6CA3B7" stroke-width="1.1669" stroke-linecap="round" stroke-linejoin="round"/>
<path d="M1118.49 370.037L1122.08 373.303" stroke="#6CA3B7" stroke-width="1.1669" stroke-linecap="round" stroke-linejoin="round"/>
<path d="M1126.98 349.646L1132.93 355.789" stroke="#6CA3B7" stroke-width="1.1669" stroke-linecap="round" stroke-linejoin="round"/>
<path d="M1140.32 334.881L1143.91 338.148" stroke="#6CA3B7" stroke-width="1.1669" stroke-linecap="round" stroke-linejoin="round"/>
<path d="M1149.29 313.751L1155.24 319.894" stroke="#6CA3B7" stroke-width="1.1669" stroke-linecap="round" stroke-linejoin="round"/>
<path fill-rule="evenodd" clip-rule="evenodd" d="M1001.24 136.399C1001.24 136.399 1053.08 122.241 1072.68 156.875C1092.28 191.508 1075.22 228.626 1026.88 220.74C1018.91 219.477 1011.78 217.604 1005.48 215.295L980.066 227.057L985.36 204.621C956.399 182.578 964.055 147.116 1001.24 136.399Z" fill="#DE7773"/>
<path fill-rule="evenodd" clip-rule="evenodd" d="M1055.31 196.127L1033.35 148.728C1033.35 148.728 1031.25 143.326 1027.49 146.463C1023.73 149.6 995.246 192.25 995.246 192.25C995.246 192.25 990.783 198 999.97 199.743C1009.16 201.485 1052.73 202.27 1052.73 202.27C1052.73 202.27 1058.64 203.707 1055.31 196.127Z" fill="white"/>
<path fill-rule="evenodd" clip-rule="evenodd" d="M1032.96 160.925L1024.38 160.402L1024.47 181.488L1030.16 181.836L1032.96 160.925ZM1026.57 193.207C1027.84 193.294 1028.93 192.945 1029.81 192.205C1030.73 191.42 1031.21 190.462 1031.25 189.286C1031.34 188.153 1030.99 187.151 1030.2 186.323C1029.42 185.496 1028.41 185.016 1027.1 184.929C1025.83 184.842 1024.73 185.191 1023.86 185.888C1022.98 186.628 1022.5 187.587 1022.42 188.763C1022.33 189.896 1022.68 190.941 1023.51 191.769C1024.3 192.64 1025.3 193.119 1026.57 193.207Z" fill="#DE7773"/>
<path fill-rule="evenodd" clip-rule="evenodd" d="M1139.18 538.981C1152.96 538.894 1183.89 536.716 1196.88 519.116C1213.77 496.157 1196.4 470.977 1160.53 470.018C1077.06 467.84 1076.66 531.619 1122.6 538.241L1130.17 554.708L1139.18 538.981Z" fill="white" stroke="black" stroke-width="1.1669" stroke-linecap="round" stroke-linejoin="round"/>
<path fill-rule="evenodd" clip-rule="evenodd" d="M1125.7 504.218C1128.11 504.218 1130.04 506.222 1130.04 508.661C1130.04 511.101 1128.11 513.105 1125.7 513.105C1123.3 513.105 1121.33 511.101 1121.33 508.661C1121.33 506.222 1123.3 504.218 1125.7 504.218ZM1171.82 497.378C1174.22 497.378 1176.15 499.382 1176.15 501.822C1176.15 504.261 1174.22 506.265 1171.82 506.265C1169.41 506.265 1167.44 504.261 1167.44 501.822C1167.44 499.382 1169.41 497.378 1171.82 497.378ZM1148.28 501.212C1150.68 501.212 1152.65 503.172 1152.65 505.655C1152.65 508.095 1150.68 510.055 1148.28 510.055C1145.87 510.055 1143.95 508.095 1143.95 505.655C1143.95 503.172 1145.87 501.212 1148.28 501.212Z" fill="black"/>
<path fill-rule="evenodd" clip-rule="evenodd" d="M581.746 383.105C598.632 360.147 581.264 334.966 545.391 334.008C490.05 332.57 471.238 360.103 478.238 380.753L468.832 397.743L488.344 394.563C493.287 398.353 499.718 401.141 507.505 402.23C531.217 403.232 566.39 403.929 581.746 383.105Z" fill="white" stroke="black" stroke-width="1.1669" stroke-linecap="round" stroke-linejoin="round"/>
<path fill-rule="evenodd" clip-rule="evenodd" d="M510.568 368.206C512.974 368.206 514.899 370.21 514.899 372.65C514.899 375.09 512.974 377.05 510.568 377.05C508.162 377.05 506.193 375.09 506.193 372.65C506.193 370.21 508.162 368.206 510.568 368.206ZM556.679 361.367C559.085 361.367 561.01 363.371 561.01 365.81C561.01 368.25 559.085 370.254 556.679 370.254C554.272 370.254 552.304 368.25 552.304 365.81C552.304 363.371 554.272 361.367 556.679 361.367ZM533.186 365.2C535.592 365.2 537.517 367.161 537.517 369.644C537.517 372.084 535.592 374.044 533.186 374.044C530.78 374.044 528.811 372.084 528.811 369.644C528.811 367.161 530.78 365.2 533.186 365.2Z" fill="black"/>
<path fill-rule="evenodd" clip-rule="evenodd" d="M542.636 166.37L534.762 255.416L609.527 242.042L616.614 152.517L542.636 166.37Z" fill="#DE7773"/>
<path fill-rule="evenodd" clip-rule="evenodd" d="M548.587 173.124L546.355 197.085L607.34 186.15L609.265 161.754L548.587 173.124Z" fill="white"/>
<path d="M555.278 201.702L554.49 210.763L545.391 211.852" stroke="black" stroke-width="1.1669" stroke-linecap="round" stroke-linejoin="round"/>
<path d="M570.987 199.652L570.199 208.67L561.1 209.759" stroke="black" stroke-width="1.1669" stroke-linecap="round" stroke-linejoin="round"/>
<path d="M587.041 196.344L586.254 205.406L577.154 206.495" stroke="black" stroke-width="1.1669" stroke-linecap="round" stroke-linejoin="round"/>
<path d="M602.701 193.076L601.914 202.137L592.814 203.226" stroke="black" stroke-width="1.1669" stroke-linecap="round" stroke-linejoin="round"/>
<path d="M554.491 217.038L553.703 226.055L544.604 227.188" stroke="black" stroke-width="1.1669" stroke-linecap="round" stroke-linejoin="round"/>
<path d="M570.196 214.945L569.408 224.006L560.309 225.095" stroke="black" stroke-width="1.1669" stroke-linecap="round" stroke-linejoin="round"/>
<path d="M586.25 211.678L585.463 220.696L576.363 221.785" stroke="black" stroke-width="1.1669" stroke-linecap="round" stroke-linejoin="round"/>
<path d="M601.914 208.41L601.127 217.471L592.027 218.56" stroke="black" stroke-width="1.1669" stroke-linecap="round" stroke-linejoin="round"/>
<path d="M553.66 231.979L552.873 241.041L543.773 242.13" stroke="black" stroke-width="1.1669" stroke-linecap="round" stroke-linejoin="round"/>
<path d="M569.323 229.931L568.535 238.949L559.436 240.082" stroke="black" stroke-width="1.1669" stroke-linecap="round" stroke-linejoin="round"/>
<path d="M585.377 226.62L584.59 235.681L575.49 236.77" stroke="black" stroke-width="1.1669" stroke-linecap="round" stroke-linejoin="round"/>
<path d="M601.039 223.396L600.251 232.413L591.195 233.546" stroke="black" stroke-width="1.1669" stroke-linecap="round" stroke-linejoin="round"/>
<path fill-rule="evenodd" clip-rule="evenodd" d="M779.707 353.741L759.014 375.436C759.014 375.436 716.403 325.424 711.197 316.754C705.991 308.085 704.241 304.643 704.241 304.643C704.241 304.643 703.629 284.647 705.335 277.11C707.085 269.53 712.86 259.946 711.504 257.245C710.147 254.587 705.029 253.106 700.523 259.292C696.017 265.522 691.686 273.93 691.686 273.93C691.686 273.93 670.03 247.53 663.775 244.524C657.562 241.518 653.756 244.437 653.756 244.437C653.756 244.437 649.819 239.95 644.175 243.478C638.576 247.051 646.319 252.714 652.181 262.473C658 272.231 661.893 281.031 661.893 281.031C661.893 281.031 641.288 260.077 636.432 258.595C631.62 257.114 627.507 260.948 632.801 267.178C638.094 273.407 641.288 276.936 645.444 282.207C649.644 287.479 651.613 291.661 651.613 291.661C651.613 291.661 637.788 284.56 629.87 283.95C621.995 283.297 624.664 290.92 628.382 292.053C632.101 293.142 649.731 303.293 657.606 309.435C665.524 315.578 669.812 320.457 669.812 320.457L724.934 410.941C730.009 419.219 743.921 433.29 768.07 421.92C792.262 410.593 822.93 386.676 822.93 386.676L779.707 353.741Z" fill="white" stroke="black" stroke-width="1.1669" stroke-linecap="round" stroke-linejoin="round"/>
<path fill-rule="evenodd" clip-rule="evenodd" d="M719.687 848.114C719.687 848.114 714.787 896.21 707.7 918.559C700.657 940.907 691.732 966.044 718.768 962.951C745.848 959.902 759.06 929.276 764.922 909.976C770.741 890.677 773.541 878.131 773.541 878.131L770.128 840.752L719.687 848.114Z" fill="white" stroke="black" stroke-width="1.1669" stroke-linecap="round" stroke-linejoin="round"/>
<path fill-rule="evenodd" clip-rule="evenodd" d="M770.301 847.589C770.301 847.589 768.026 876.647 762.82 904.136C757.614 931.626 744.009 969.919 771.176 967.828C798.387 965.737 813.918 927.051 818.73 900.869C823.499 874.687 824.68 864.841 824.68 864.841L822.317 832.429L770.301 847.589Z" fill="white" stroke="black" stroke-width="1.1669" stroke-linecap="round" stroke-linejoin="round"/>
<path fill-rule="evenodd" clip-rule="evenodd" d="M955.701 496.414C958.544 495.804 962.656 527.868 960.119 558.102C957.582 588.336 934.526 612.863 910.159 631.421C885.835 649.98 833.687 668.582 833.687 668.582C832.025 725.521 827.213 783.637 826.425 840.096C821.394 863.752 777.034 870.853 767.147 850.465C767.147 850.465 753.104 861.008 735.08 861.312C717.055 861.661 712.462 853.471 712.462 853.471C707.212 809.775 668.933 631.073 699.119 593.912C733.68 551.48 791.252 524.209 830.669 507.872L955.701 496.414Z" fill="#D7F0F7"/>
<path d="M776.078 591.256C772.447 593.434 744.317 611.252 747.948 655.775C751.579 700.342 766.497 843.147 766.759 845.456" stroke="black" stroke-width="1.1669" stroke-linecap="round" stroke-linejoin="round"/>
<path fill-rule="evenodd" clip-rule="evenodd" d="M909.29 313.095L941.62 300.897C941.62 300.897 975.524 308.39 987.38 336.533C999.192 364.719 1002.87 382.189 1002.87 382.189L959.381 403.274C959.381 403.274 945.338 444.007 951.638 470.146C957.981 496.285 960.956 497.374 957.5 504.301C954 511.228 937.595 528.828 888.903 535.145C840.255 541.418 819.694 518.154 818.119 514.669C816.544 511.228 825.206 473.588 824.9 457.251C824.594 440.87 822.363 425.449 822.363 425.449C822.363 425.449 811.163 417.607 807.532 410.201C803.901 402.795 808.932 385.979 808.932 385.979L772.402 357.052C772.402 357.052 788.239 335.139 798.345 324.901C808.451 314.663 819.913 306.168 837.499 302.77C837.499 302.77 840.124 302.552 844.674 302.247C866.592 302.335 909.29 313.095 909.29 313.095Z" fill="black" stroke="black" stroke-width="0.466762" stroke-linecap="round" stroke-linejoin="round"/>
<path d="M768.418 386.241L759.012 375.437" stroke="black" stroke-width="1.1669" stroke-linecap="round" stroke-linejoin="round"/>
<path d="M675.98 296.149C675.98 296.149 684.03 288.569 686.961 283.472C689.892 278.331 691.686 273.931 691.686 273.931" stroke="black" stroke-width="1.1669" stroke-linecap="round" stroke-linejoin="round"/>
<path d="M674.492 274.279C669.68 266.35 661.587 253.542 653.756 244.437" stroke="black" stroke-width="1.1669" stroke-linecap="round" stroke-linejoin="round"/>
<path d="M820.959 340.89C820.959 340.89 819.603 354.656 817.416 363.151C816.103 368.074 813.741 374.173 811.947 378.486" stroke="white" stroke-width="1.1669" stroke-linecap="round" stroke-linejoin="round"/>
<path fill-rule="evenodd" clip-rule="evenodd" d="M675.802 456.336L670.553 461.303L705.857 576.357L869.431 599.882L950.015 536.626L852.325 526.737L837.276 477.64L675.802 456.336Z" fill="#DE7773"/>
<path d="M675.895 462L832.337 482.781L867.423 594.481" stroke="white" stroke-width="1.1669" stroke-linecap="round" stroke-linejoin="round"/>
<path fill-rule="evenodd" clip-rule="evenodd" d="M817.113 218.908C819.3 230.54 821.575 240.517 824.2 248.75C826.3 254.675 829.668 261.863 834.656 268.049C845.33 281.206 861.342 280.465 861.342 280.465L862.304 296.192L837.499 302.771C837.499 302.771 822.144 357.88 871.141 355.353C920.139 352.826 941.619 300.897 941.619 300.897L905.265 293.056C905.265 293.056 901.634 267.527 901.328 258.901C901.021 250.231 901.634 244.263 901.634 244.263C901.634 244.263 911.127 243.087 913.665 231.411C916.158 219.78 912.177 213.594 910.427 211.59C933.701 133.957 798.607 120.278 817.113 218.908Z" fill="white"/>
<path fill-rule="evenodd" clip-rule="evenodd" d="M861.342 280.465C861.342 280.465 845.33 281.206 834.656 268.049C829.668 261.863 826.3 254.675 824.2 248.75C821.575 240.516 819.3 230.54 817.113 218.908C816.106 213.637 815.581 208.714 815.45 204.096C815.931 202.964 824.9 182.357 844.674 174.298C844.674 174.298 844.324 191.462 859.811 200.611C875.297 209.716 888.728 209.106 888.728 209.106C888.728 209.106 888.509 217.122 889.472 222.219C890.39 227.36 893.234 229.93 893.715 229.538C894.197 229.146 892.228 216.077 899.884 211.851C907.54 207.581 910.427 211.589 910.427 211.589C912.177 213.593 916.158 219.78 913.664 231.411C911.127 243.087 901.634 244.263 901.634 244.263C901.634 244.263 901.021 250.231 901.327 258.901C901.59 266.002 904.084 284.517 904.959 290.877C931.689 283.558 945.469 268.703 945.469 268.703C944.813 230.54 929.851 117.402 870.354 143.28C870.354 143.28 850.755 128.511 830.5 145.632C810.288 162.797 801.888 194.599 798.126 229.974C794.32 265.392 786.883 286.782 786.883 286.782C786.883 286.782 792.833 289.483 797.732 283.82C802.632 278.156 809.719 261.602 809.719 261.602C809.719 261.602 807.051 288.525 811.775 292.01C815.013 294.362 837.762 296.715 862.304 296.061L861.342 280.465Z" fill="#DE7773"/>
<path d="M900.755 236.161C900.755 236.161 899.093 230.889 901.193 223.178C903.336 215.467 908.149 216.861 908.149 216.861" stroke="black" stroke-width="1.1669" stroke-linecap="round" stroke-linejoin="round"/>
<path d="M907.496 229.277L900.934 224.267" stroke="black" stroke-width="1.1669" stroke-linecap="round" stroke-linejoin="round"/>
<path fill-rule="evenodd" clip-rule="evenodd" d="M827.04 221.13C828.878 220.477 830.934 221.653 831.634 223.7C832.377 225.792 831.502 227.97 829.665 228.623C827.828 229.233 825.771 228.057 825.071 226.009C824.328 223.918 825.203 221.74 827.04 221.13ZM859.457 222.655C861.295 222.001 863.351 223.178 864.095 225.269C864.795 227.316 863.92 229.495 862.126 230.148C860.289 230.758 858.232 229.625 857.489 227.534C856.789 225.487 857.664 223.265 859.457 222.655Z" fill="black"/>
<path d="M842.353 221.87C842.353 221.87 841.653 233.589 840.953 238.73C840.253 243.827 839.291 247.225 839.291 247.225C842.135 247.965 845.678 247.965 848.697 247.051" stroke="black" stroke-width="1.1669" stroke-linecap="round" stroke-linejoin="round"/>
<path d="M829.973 237.247C837.021 233.904 839.799 224.953 836.177 217.255C832.556 209.556 823.907 206.026 816.859 209.369C809.811 212.713 807.033 221.663 810.655 229.362C814.276 237.06 822.925 240.59 829.973 237.247Z" stroke="black" stroke-width="1.58139" stroke-linecap="round" stroke-linejoin="round"/>
<path d="M869.194 237.206C876.242 233.863 879.019 224.912 875.398 217.214C871.777 209.515 863.128 205.985 856.08 209.328C849.032 212.672 846.254 221.622 849.875 229.321C853.497 237.019 862.146 240.549 869.194 237.206Z" stroke="black" stroke-width="1.58139" stroke-linecap="round" stroke-linejoin="round"/>
<path d="M896.164 215.598L876.871 222.264" stroke="black" stroke-width="1.1669" stroke-linecap="round" stroke-linejoin="round"/>
<path d="M837.76 223.352L848.347 223.615" stroke="black" stroke-width="1.1669" stroke-linecap="round" stroke-linejoin="round"/>
<path d="M891.134 261.472C885.884 271.405 876.522 277.504 865.541 279.857" stroke="black" stroke-width="1.1669" stroke-linecap="round" stroke-linejoin="round"/>
<path d="M857.664 265.176C859.901 264.434 861.066 261.655 860.269 258.971C859.471 256.286 857.011 254.713 854.775 255.455C852.539 256.198 851.373 258.976 852.171 261.661C852.969 264.345 855.428 265.919 857.664 265.176Z" fill="black" stroke="black" stroke-width="1.43924" stroke-linecap="round" stroke-linejoin="round"/>
<path d="M848.17 255.679L855.301 255.329" stroke="black" stroke-width="1.1669" stroke-linecap="round" stroke-linejoin="round"/>
<path d="M941.666 375.61L950.678 403.622" stroke="white" stroke-width="1.1669" stroke-linecap="round" stroke-linejoin="round"/>
<path fill-rule="evenodd" clip-rule="evenodd" d="M956.057 404.537L966.731 448.711L913.621 511.009C913.621 511.009 879.804 523.425 875.211 527.868C870.661 532.269 861.649 541.635 860.511 542.985C859.418 544.336 861.78 546.601 863.836 546.993C865.892 547.385 867.555 546.993 867.555 546.993C867.555 546.993 860.905 558.407 862.042 561.065C863.136 563.766 868.43 561.326 868.43 561.326C868.43 561.326 868.911 565.726 871.492 565.901C874.117 566.031 878.054 562.415 878.054 562.415C878.054 562.415 878.842 566.031 883.216 565.334C887.547 564.637 889.735 560.281 889.735 560.281C889.735 560.281 892.535 566.685 898.922 560.237C914.102 544.902 909.465 552.047 925.214 539.587C932.827 533.619 937.245 528.13 937.245 528.13C937.245 528.13 1008.64 488.791 1010.7 456.509C1012.75 424.272 999.586 383.756 999.586 383.756L956.057 404.537Z" fill="white" stroke="black" stroke-width="1.1669" stroke-linecap="round" stroke-linejoin="round"/>
<path d="M904.738 541.635C902.026 543.509 894.588 550.697 889.732 560.281" stroke="black" stroke-width="1.1669" stroke-linecap="round" stroke-linejoin="round"/>
<path d="M895.377 539.415C889.733 544.076 881.246 554.183 878.053 562.417" stroke="black" stroke-width="1.1669" stroke-linecap="round" stroke-linejoin="round"/>
<path d="M887.456 538.151C878.007 546.08 872.976 552.135 868.426 561.327" stroke="black" stroke-width="1.1669" stroke-linecap="round" stroke-linejoin="round"/>
<path d="M879.888 534.797C875.732 538.064 870.394 542.638 867.551 546.995" stroke="black" stroke-width="1.1669" stroke-linecap="round" stroke-linejoin="round"/>
<path d="M867.902 145.327C867.902 145.327 861.821 147.636 855.652 153.735C849.484 159.878 846.334 167.066 846.334 167.066" stroke="white" stroke-width="1.1669" stroke-linecap="round" stroke-linejoin="round"/>
<path d="M861.209 170.682C861.209 170.682 864.971 187.672 882.82 194.12C900.713 200.568 907.013 198.825 907.013 198.825" stroke="white" stroke-width="1.1669" stroke-linecap="round" stroke-linejoin="round"/>
<path d="M882.029 174.909C882.029 174.909 884.873 183.099 895.46 186.105C906.047 189.067 910.64 189.416 910.64 189.416" stroke="white" stroke-width="1.1669" stroke-linecap="round" stroke-linejoin="round"/>
<path d="M903.863 176.954C903.863 176.954 909.857 177.913 914.581 182.008C919.35 186.103 921.1 188.15 921.1 188.15" stroke="white" stroke-width="1.1669" stroke-linecap="round" stroke-linejoin="round"/>
<path d="M928.189 239.907C928.189 239.907 930.07 248.882 930.07 256.767C930.07 264.608 930.07 264.608 930.07 264.608V263.824" stroke="white" stroke-width="1.1669" stroke-linecap="round" stroke-linejoin="round"/>
<path d="M919.654 247.008C919.654 247.008 920.311 253.107 920.924 257.071C921.537 260.992 921.537 261.297 921.537 261.297" stroke="white" stroke-width="1.1669" stroke-linecap="round" stroke-linejoin="round"/>
<path d="M823.759 272.188L823.584 281.468" stroke="white" stroke-width="1.1669" stroke-linecap="round" stroke-linejoin="round"/>
<path d="M976.22 448.713H966.727" stroke="black" stroke-width="1.1669" stroke-linecap="round" stroke-linejoin="round"/>
<path d="M861.865 287.696L862.478 296.409L846.947 300.548M922.412 296.889L905.219 293.186C905.219 293.186 901.632 267.526 901.326 258.9C901.02 250.231 901.632 244.262 901.632 244.262C901.632 244.262 911.125 243.086 913.663 231.411C916.156 219.779 912.175 213.593 910.425 211.589" stroke="black" stroke-width="1.1669" stroke-linecap="round" stroke-linejoin="round"/>
<path d="M831.897 713.064C832.597 698.164 833.253 683.309 833.69 668.584C833.69 668.584 885.838 649.982 910.162 631.423C934.529 612.865 957.585 588.338 960.122 558.104C962.659 527.87 959.772 514.104 959.772 514.104M710.627 581.193C706.559 585.288 702.709 589.514 699.122 593.914C687.31 608.465 685.997 644.711 689.06 686.053L710.627 581.193Z" stroke="black" stroke-width="1.1669" stroke-linecap="round" stroke-linejoin="round"/>
<path fill-rule="evenodd" clip-rule="evenodd" d="M1024.47 591.912C1024.47 591.912 1014.54 597.401 1007.89 611.255C1001.29 625.109 997.305 645.41 997.305 645.41C997.305 645.41 979.762 665.101 978.494 669.022C977.225 672.943 991.924 675.557 991.924 675.557C991.924 675.557 989.168 684.531 989.343 685.533C989.474 686.578 1012.57 688.06 1014.45 689.018C1014.37 691.022 996.037 699.691 992.712 701.913C989.387 704.091 995.643 711.018 995.643 711.018C995.643 711.018 987.768 736.199 995.949 739.205C1004.17 742.211 1038.47 736.547 1038.47 736.547L1040.53 762.817L1106.41 749.573L1101.38 699.212C1101.38 699.212 1134.54 661.137 1122.86 622.756C1111.14 584.376 1055.53 573.659 1024.47 591.912Z" fill="white" stroke="black" stroke-width="1.1669" stroke-linecap="round" stroke-linejoin="round"/>
<path d="M1016.59 654.847C1019.05 655.089 1021.29 652.822 1021.6 649.782C1021.9 646.742 1020.15 644.081 1017.69 643.839C1015.22 643.596 1012.98 645.864 1012.68 648.904C1012.38 651.943 1014.13 654.604 1016.59 654.847Z" fill="black"/>
<path d="M1012.31 630.991C1012.31 630.991 1015.33 629.205 1020.84 630.468C1026.4 631.731 1027.71 634.563 1027.71 634.563" stroke="black" stroke-width="1.1669" stroke-linecap="round" stroke-linejoin="round"/>
<path fill-rule="evenodd" clip-rule="evenodd" d="M747.896 704.264C747.896 704.264 771.214 836.701 768.546 836.962C765.921 837.224 948.7 795.402 948.7 795.402L928.969 662.398L747.896 704.264Z" fill="#DE7773"/>
<path fill-rule="evenodd" clip-rule="evenodd" d="M1003.69 574.312C1000.85 595.397 1012.4 600.755 1023.29 603.979C1034.19 607.203 1052.78 607.072 1051.64 620.926C1050.55 634.736 1046.13 636.174 1049.89 643.71C1053.7 651.29 1048.18 664.796 1053.87 665.928C1059.56 667.017 1059.08 650.986 1075.53 657.085C1091.93 663.227 1083.88 685.576 1076.31 691.544C1068.7 697.556 1067.3 696.119 1069.18 704.614C1071.11 713.109 1075.96 725.22 1083.1 725.699C1090.23 726.178 1088 719.905 1097.01 720.515C1106.02 721.125 1107.59 718.642 1113.11 706.966C1118.66 695.334 1130.82 695.509 1135.86 686.534C1140.93 677.56 1138.39 667.976 1143.77 659.132C1149.16 650.332 1165.43 639.005 1160.35 626.807C1155.32 614.609 1145.35 606.114 1145.52 600.45C1145.66 594.787 1145.61 578.189 1133.36 577.71C1121.11 577.23 1107.42 583.547 1098.01 572.743C1088.65 561.983 1080.65 550.002 1069.58 557.104C1049.67 569.824 1007.94 542.901 1003.69 574.312Z" fill="black" stroke="black" stroke-width="0.466762" stroke-linecap="round" stroke-linejoin="round"/>
<path d="M1065.51 686.665C1065.51 686.665 1062.36 675.73 1067.08 669.283C1071.85 662.835 1077.76 667.148 1077.76 667.148" stroke="black" stroke-width="1.1669" stroke-linecap="round" stroke-linejoin="round"/>
<path d="M1074.7 679.695L1066.21 670.72" stroke="black" stroke-width="1.1669" stroke-linecap="round" stroke-linejoin="round"/>
<path fill-rule="evenodd" clip-rule="evenodd" d="M969.961 814.004C969.961 814.004 943.931 810.649 941.131 807.992C938.331 805.334 935.925 799.453 940.343 795.271C944.806 791.089 956.049 780.982 956.049 780.982C956.049 780.982 936.231 766.605 930.194 761.987C924.113 757.369 916.632 752.882 917.944 748.482C919.301 744.039 929.888 749.571 938.243 752.926C946.599 756.28 964.317 764.296 964.317 764.296C964.317 764.296 967.292 760.158 970.923 758.894C974.598 757.631 975.779 759.025 977.442 758.11C979.148 757.195 982.516 752.447 985.054 753.579C987.591 754.712 989.21 755.932 991.747 754.276C994.241 752.577 998.834 752.316 1002.68 755.061C1006.53 757.762 1024.91 784.118 1024.56 781.853C1024.16 779.544 969.961 814.004 969.961 814.004Z" fill="white" stroke="black" stroke-width="1.1669" stroke-linecap="round" stroke-linejoin="round"/>
<path d="M765.398 712.455L889.599 684.443" stroke="black" stroke-width="1.1669" stroke-linecap="round" stroke-linejoin="round"/>
<path d="M902.156 677.516L914.624 684.879" stroke="black" stroke-width="1.1669" stroke-linecap="round" stroke-linejoin="round"/>
<path d="M912.609 674.771L903.859 687.623" stroke="black" stroke-width="1.1669" stroke-linecap="round" stroke-linejoin="round"/>
<path fill-rule="evenodd" clip-rule="evenodd" d="M769.857 730.273L782.632 804.856L848.997 790.044L836.486 714.982L769.857 730.273Z" fill="white"/>
<path fill-rule="evenodd" clip-rule="evenodd" d="M854.863 710.583L856.438 718.773L918.867 704.135L917.423 695.64L854.863 710.583Z" fill="white"/>
<path fill-rule="evenodd" clip-rule="evenodd" d="M858.977 731.799L860.551 739.989L902.287 730.231L900.843 721.736L858.977 731.799Z" fill="white"/>
<path d="M863.789 754.93L915.062 743.124" stroke="white" stroke-width="1.1669" stroke-linecap="round" stroke-linejoin="round"/>
<path d="M866.629 767.87L909.677 757.719" stroke="white" stroke-width="1.1669" stroke-linecap="round" stroke-linejoin="round"/>
<path d="M868.771 781.419L917.813 769.918" stroke="white" stroke-width="1.1669" stroke-linecap="round" stroke-linejoin="round"/>
<path fill-rule="evenodd" clip-rule="evenodd" d="M821.045 827.553C821.045 827.553 807.309 812.131 801.14 791.83C794.972 771.529 793.878 755.802 788.672 756.891C783.422 757.98 781.716 765.212 781.716 774.056C781.716 782.856 782.941 790.262 782.941 790.262L759.23 770.527L757.261 758.808C757.261 758.808 744.705 762.903 742.343 768.262C739.98 773.62 743.437 783.204 743.437 783.204C743.437 783.204 739.324 785.47 739.324 791.046C739.324 796.666 744.093 801.676 744.093 801.676C744.093 801.676 740.899 805.858 741.205 809.692C741.555 813.569 745.405 817.969 745.405 817.969C745.405 817.969 742.78 831.082 750.305 836.615C757.83 842.147 779.529 859.573 779.529 859.573L821.045 827.553Z" fill="white" stroke="black" stroke-width="1.1669" stroke-linecap="round" stroke-linejoin="round"/>
<path fill-rule="evenodd" clip-rule="evenodd" d="M942.533 836.18C942.533 836.18 962.438 799.063 987.287 787.866C994.024 784.86 1006.36 781.245 1021.37 777.629C1021.37 777.629 1023.99 761.336 1030.77 758.678C1037.6 756.021 1099.54 746.393 1099.54 746.393C1099.54 746.393 1116.26 742.472 1120.06 746.262C1123.87 750.009 1128.94 757.85 1128.94 757.85C1133.71 757.284 1137.82 756.892 1141.02 756.718C1169.76 755.149 1194.43 762.686 1201.08 807.383C1206.9 846.81 1201.48 959.555 1200.08 985.694H869.78C831.325 946.834 806.608 915.468 771.828 859.443C774.715 822.893 812.601 815.574 820.432 822.326L914.271 902.921C914.271 902.921 938.289 842.932 942.533 836.18Z" fill="#DE7773"/>
<path d="M901.365 936.422L914.271 902.921" stroke="black" stroke-width="1.1669" stroke-linecap="round" stroke-linejoin="round"/>
<path d="M1012.31 893.597L980.068 985.692" stroke="black" stroke-width="1.1669" stroke-linecap="round" stroke-linejoin="round"/>
<path d="M779.834 872.208C779.834 872.208 780.84 852.168 796.283 840.013C811.77 827.859 829.882 830.473 829.882 830.473" stroke="#A94D4D" stroke-width="1.1669" stroke-linecap="round" stroke-linejoin="round"/>
<path d="M773.58 849.684L782.592 859.791" stroke="#A94D4D" stroke-width="1.1669" stroke-linecap="round" stroke-linejoin="round"/>
<path d="M778.738 838.445L788.713 847.986" stroke="#A94D4D" stroke-width="1.1669" stroke-linecap="round" stroke-linejoin="round"/>
<path d="M787.49 828.991L797.202 839.316" stroke="#A94D4D" stroke-width="1.1669" stroke-linecap="round" stroke-linejoin="round"/>
<path d="M798.428 822.762L807.352 833.653" stroke="#A94D4D" stroke-width="1.1669" stroke-linecap="round" stroke-linejoin="round"/>
<path d="M810.896 820.103L819.077 830.645" stroke="#A94D4D" stroke-width="1.1669" stroke-linecap="round" stroke-linejoin="round"/>
<path d="M753.629 766.564L759.229 770.528" stroke="black" stroke-width="1.1669" stroke-linecap="round" stroke-linejoin="round"/>
<path d="M969.483 766.563L964.32 764.298" stroke="black" stroke-width="1.1669" stroke-linecap="round" stroke-linejoin="round"/>
<path d="M1073.08 579.147C1073.08 579.147 1083.14 578.275 1089.05 582.153C1094.91 586.03 1097.1 593.175 1097.1 593.175" stroke="white" stroke-width="1.1669" stroke-linecap="round" stroke-linejoin="round"/>
<path d="M1114.07 648.895C1114.07 648.895 1116.13 660.047 1113.41 664.796C1110.75 669.501 1107.29 671.548 1107.29 671.548" stroke="white" stroke-width="1.1669" stroke-linecap="round" stroke-linejoin="round"/>
<path d="M1126.01 659.176C1126.01 659.176 1130.61 650.201 1129.82 643.623C1129.03 637.001 1124.79 631.556 1124.79 631.556" stroke="white" stroke-width="1.1669" stroke-linecap="round" stroke-linejoin="round"/>
<path d="M1073.16 594.613C1071.06 589.341 1062.53 587.947 1056.85 589.341" stroke="white" stroke-width="1.1669" stroke-linecap="round" stroke-linejoin="round"/>
<path d="M1034.58 775.19C1069.23 767.74 1093.99 763.34 1128.94 757.851" stroke="#A94D4D" stroke-width="1.1669" stroke-linecap="round" stroke-linejoin="round"/>
<path d="M373.246 454.596L368.521 411.162M368.521 411.162C362.266 408.286 348.135 400.793 345.379 390.904C341.791 378.14 352.728 374.785 352.728 374.785L368.521 411.162ZM446.655 320.896C446.655 320.896 456.63 369.644 457.505 388.769C458.38 407.938 452.78 422.227 446.13 427.891C439.437 433.598 428.894 435.209 428.894 435.209" stroke="black" stroke-width="1.1669" stroke-linecap="round" stroke-linejoin="round"/>
<path fill-rule="evenodd" clip-rule="evenodd" d="M364.713 746.522C364.713 746.522 373.856 814.832 399.143 873.339C416.073 912.504 441.753 962.908 456.89 992.009H648.637L563.197 704.352L364.713 746.522Z" fill="black"/>
<path fill-rule="evenodd" clip-rule="evenodd" d="M379.718 459.214L368.169 457.602C368.169 457.602 295.153 490.058 295.503 544.166C295.809 598.317 304.647 625.98 317.946 647.066C331.202 668.151 350.801 678.563 350.801 678.563L356.794 749.356C356.794 749.356 356.488 766.041 368.65 766.346C380.812 766.694 470.889 767.304 519.887 747.787C568.884 728.27 572.953 719.775 571.378 708.753C569.803 697.731 551.473 630.38 551.473 630.38C551.473 630.38 595.395 614.348 588.79 576.883C582.14 539.461 546.923 483.262 520.193 462.961C493.506 442.66 439.74 448.192 439.74 448.192C439.74 448.192 410.867 471.63 379.718 459.214Z" fill="#D7F0F7"/>
<path fill-rule="evenodd" clip-rule="evenodd" d="M446.655 320.896C446.655 320.896 456.63 369.645 457.505 388.77C458.38 407.938 452.78 422.227 446.13 427.891C439.437 433.598 428.894 435.21 428.894 435.21L432.875 448.018L439.743 448.192C439.743 448.192 445.43 481.17 409.251 485.614C373.071 490.014 368.171 457.602 368.171 457.602L373.246 454.596L368.521 411.162C362.266 408.287 348.135 400.793 345.379 390.904C341.791 378.14 352.728 374.785 352.728 374.785C352.728 374.785 329.192 325.818 383.265 309.177C437.293 292.535 446.655 320.896 446.655 320.896Z" fill="white"/>
<path fill-rule="evenodd" clip-rule="evenodd" d="M371.845 373.913C372.151 376.57 372.457 378.879 372.545 380.578C372.939 387.418 369.089 385.371 366.683 381.101C364.276 376.832 359.158 374.087 352.727 374.784C352.727 374.784 341.79 378.139 345.377 390.903C348.965 403.711 368.52 411.161 368.52 411.161C368.52 411.161 369.57 421.137 370.707 431.462C357.714 425.886 343.627 410.594 329.847 382.844C316.066 355.093 318.254 340.934 327.616 321.853C336.978 302.728 351.415 297.544 374.732 292.97C398.05 288.395 425.917 282.993 425.917 282.993C451.685 278.985 462.403 271.231 466.865 278.463C471.372 285.694 459.866 293.275 459.866 293.275C459.866 293.275 475.44 293.275 477.234 301.291C479.027 309.306 457.897 314.621 457.897 314.621C457.897 314.621 470.453 320.459 467.565 325.643C464.722 330.784 448.885 332.265 448.885 332.265C448.885 332.265 442.279 332.222 430.511 332.396C426.092 332.439 420.668 332.004 414.805 331.699C415.637 333.136 415.855 334.923 414.543 336.927C410.956 342.503 386.194 337.624 386.194 337.624C386.194 337.624 383.657 349.299 370.839 347.861C368.826 354.788 369.657 363.719 371.845 373.913Z" fill="black" stroke="black" stroke-width="0.466762" stroke-linecap="round" stroke-linejoin="round"/>
<path d="M406.66 377.574C404.643 378.056 402.454 376.144 401.77 373.305C401.086 370.465 402.166 367.773 404.183 367.291C406.199 366.809 408.388 368.721 409.073 371.56C409.757 374.4 408.676 377.092 406.66 377.574Z" fill="black"/>
<path d="M442.689 366.83C440.672 367.312 438.483 365.401 437.799 362.561C437.115 359.722 438.195 357.029 440.212 356.548C442.229 356.066 444.418 357.977 445.102 360.817C445.786 363.656 444.706 366.348 442.689 366.83Z" fill="black"/>
<path d="M426.221 364.156C426.221 364.156 435.364 383.673 433.221 388.16C431.033 392.647 424.777 391.689 424.777 391.689" stroke="black" stroke-width="1.1669" stroke-linecap="round" stroke-linejoin="round"/>
<path d="M351.15 383.453C360.294 384.586 367.775 392.732 369.087 401.533" stroke="black" stroke-width="1.1669" stroke-linecap="round" stroke-linejoin="round"/>
<path d="M356.404 394.475L362.704 389.509" stroke="black" stroke-width="1.1669" stroke-linecap="round" stroke-linejoin="round"/>
<path d="M405.616 356.445C405.616 356.445 403.035 356.489 398.967 358.014C394.898 359.538 393.061 361.499 393.061 361.499" stroke="black" stroke-width="1.1669" stroke-linecap="round" stroke-linejoin="round"/>
<path d="M443.985 347.732C439.348 346.991 434.667 348.821 430.904 351.391" stroke="black" stroke-width="1.1669" stroke-linecap="round" stroke-linejoin="round"/>
<path d="M446.041 309.612C438.866 306.475 428.235 303.643 414.586 303.556" stroke="white" stroke-width="1.1669" stroke-linecap="round" stroke-linejoin="round"/>
<path d="M441.621 292.492C433.878 292.056 428.978 291.926 419.791 293.189" stroke="white" stroke-width="1.1669" stroke-linecap="round" stroke-linejoin="round"/>
<path d="M421.937 317.364C417.649 315.491 412.181 313.705 405.531 312.572" stroke="white" stroke-width="1.1669" stroke-linecap="round" stroke-linejoin="round"/>
<path d="M351.764 366.115C351.326 362.673 350.976 358.752 351.019 354.788C351.019 352.915 351.107 350.998 351.326 349.125" stroke="white" stroke-width="1.1669" stroke-linecap="round" stroke-linejoin="round"/>
<path d="M343.016 360.975C342.447 355.922 342.184 349.779 342.885 344.028" stroke="white" stroke-width="1.1669" stroke-linecap="round" stroke-linejoin="round"/>
<path d="M332.382 358.666C331.944 355.268 331.725 351.696 331.856 348.211" stroke="white" stroke-width="1.1669" stroke-linecap="round" stroke-linejoin="round"/>
<path d="M425.215 414.951C428.018 414.951 430.29 412.182 430.29 408.765C430.29 405.349 428.018 402.579 425.215 402.579C422.413 402.579 420.141 405.349 420.141 408.765C420.141 412.182 422.413 414.951 425.215 414.951Z" fill="black" stroke="black" stroke-width="1.1669" stroke-linecap="round" stroke-linejoin="round"/>
<path d="M432.566 401.446C429.154 400.923 424.998 401.925 423.248 403.058" stroke="black" stroke-width="1.1669" stroke-linecap="round" stroke-linejoin="round"/>
<path fill-rule="evenodd" clip-rule="evenodd" d="M371.275 551.745L360.819 606.811C360.819 606.811 349.444 611.385 344.238 612.648C339.032 613.912 337.458 610.688 337.458 610.688C337.458 610.688 333.389 611.69 331.727 609.555C330.108 607.464 330.545 603.195 330.545 603.195C330.545 603.195 327.702 602.193 327.264 598.882C326.783 595.571 328.095 591.084 328.095 591.084C328.095 591.084 324.333 576.141 338.857 563.377C353.382 550.656 371.275 551.745 371.275 551.745Z" fill="white"/>
<path d="M355.046 594.787C355.046 594.787 346.602 599.579 343.277 603.021C339.953 606.506 337.459 610.688 337.459 610.688" stroke="black" stroke-width="1.1669" stroke-linecap="round" stroke-linejoin="round"/>
<path d="M356.312 577.71C356.312 577.71 347.169 583.461 341.394 589.037C335.62 594.613 330.545 603.195 330.545 603.195" stroke="black" stroke-width="1.1669" stroke-linecap="round" stroke-linejoin="round"/>
<path d="M356.794 564.858C356.794 564.858 349.138 566.6 342.008 572.656C334.92 578.711 328.096 591.084 328.096 591.084" stroke="black" stroke-width="1.1669" stroke-linecap="round" stroke-linejoin="round"/>
<path d="M551.473 630.378C551.473 630.378 529.424 639.135 495.607 638.525C461.834 637.871 431.691 624.976 431.691 624.976" stroke="black" stroke-width="1.1669" stroke-linecap="round" stroke-linejoin="round"/>
<path d="M560.746 564.728L437.07 565.468" stroke="black" stroke-width="1.1669" stroke-linecap="round" stroke-linejoin="round"/>
<path d="M511.748 499.729L531.653 564.901" stroke="black" stroke-width="1.1669" stroke-linecap="round" stroke-linejoin="round"/>
<path d="M355.309 527.436L357.977 553.4" stroke="black" stroke-width="1.1669" stroke-linecap="round" stroke-linejoin="round"/>
<path d="M383.438 498.073C383.438 498.073 406.055 502.386 418.13 505.13C430.204 507.918 438.691 510.184 438.691 510.184" stroke="#6CA3B7" stroke-width="1.1669" stroke-linecap="round" stroke-linejoin="round"/>
<path d="M395.118 488.923L393.279 499.989" stroke="#6CA3B7" stroke-width="1.1669" stroke-linecap="round" stroke-linejoin="round"/>
<path d="M403.126 490.622L401.506 501.644" stroke="#6CA3B7" stroke-width="1.1669" stroke-linecap="round" stroke-linejoin="round"/>
<path d="M412.225 492.497L410.648 503.518" stroke="#6CA3B7" stroke-width="1.1669" stroke-linecap="round" stroke-linejoin="round"/>
<path d="M420.886 494.326L419.223 505.392" stroke="#6CA3B7" stroke-width="1.1669" stroke-linecap="round" stroke-linejoin="round"/>
<path d="M428.544 495.982L427.537 507.352" stroke="#6CA3B7" stroke-width="1.1669" stroke-linecap="round" stroke-linejoin="round"/>
<path d="M509.867 775.493V803.157L563.283 992.01" stroke="white" stroke-width="1.1669" stroke-linecap="round" stroke-linejoin="round"/>
<path d="M393.457 781.941C393.457 781.941 398.663 785.687 406.538 788.868C414.456 792.004 421.893 794.183 421.893 794.183" stroke="white" stroke-width="1.1669" stroke-linecap="round" stroke-linejoin="round"/>
<path d="M397.525 799.41C397.525 799.41 403.781 803.069 407.019 804.289C410.256 805.465 411.394 806.249 411.394 806.249" stroke="white" stroke-width="1.1669" stroke-linecap="round" stroke-linejoin="round"/>
<path d="M392.361 425.188C392.361 425.188 398.267 431.68 408.504 434.163C418.741 436.646 428.891 435.208 428.891 435.208" stroke="black" stroke-width="1.1669" stroke-linecap="round" stroke-linejoin="round"/>
<path d="M428.539 491.972C443.107 486.744 452.688 468.229 452.688 447.536M359.111 462.174C359.111 462.174 365.324 484.871 384.266 494.455L359.111 462.174Z" stroke="#6CA3B7" stroke-width="1.1669" stroke-linecap="round" stroke-linejoin="round"/>
<path fill-rule="evenodd" clip-rule="evenodd" d="M391.268 488.139L427.447 495.676C427.447 495.676 429.022 486.702 429.022 486.179C429.022 485.613 448.402 474.373 449.671 470.191C450.896 466.009 448.009 462.393 448.009 462.393C448.009 462.393 450.109 459.082 449.102 455.727C448.052 452.329 446.827 451.632 446.827 451.632C446.827 451.632 448.534 447.363 446.827 445.228C445.078 443.137 442.496 442.527 442.496 442.527C442.496 442.527 447.79 435.121 447.09 431.854C446.39 428.543 440.572 430.59 440.572 430.59L413.885 440.61C413.885 440.61 403.342 418.044 395.599 421.18C388.555 424.012 400.892 437.604 400.892 449.28C400.892 460.911 391.268 488.139 391.268 488.139Z" fill="white" stroke="black" stroke-width="1.1669" stroke-linecap="round" stroke-linejoin="round"/>
<path d="M357.669 622.145L360.819 606.81L371.275 551.744L383.437 498.072L385.974 486.963L391.268 488.14L427.447 495.676L438.734 498.944C438.734 498.944 439.216 579.974 430.685 631.598C422.154 683.223 395.424 689.496 380.593 689.975C365.719 690.454 352.77 680.042 352.77 680.042" stroke="black" stroke-width="1.1669" stroke-linecap="round" stroke-linejoin="round"/>
<path fill-rule="evenodd" clip-rule="evenodd" d="M440.133 759.854L538.391 790.48L683.284 721.168L707.127 631.512L713.645 604.72L704.808 599.579L692.952 604.72C664.079 616.918 566.783 659.263 566.783 659.263L560.79 662.138C559.521 668.891 557.596 675.077 555.584 681.132L550.203 704.831L548.147 705.833L440.133 759.854Z" fill="#DE7773"/>
<path d="M540.053 783.64L568.97 666.451L707.826 607.029" stroke="white" stroke-width="1.1669" stroke-linecap="round" stroke-linejoin="round"/>
<path d="M548.844 709.667L533.27 776.582" stroke="black" stroke-width="1.1669" stroke-linecap="round" stroke-linejoin="round"/>
<path d="M513.979 733.541L547.446 715.679" stroke="black" stroke-width="1.1669" stroke-linecap="round" stroke-linejoin="round"/>
<path d="M529.994 769.7L518.4 766.084L529.512 759.462" stroke="black" stroke-width="1.1669" stroke-linecap="round" stroke-linejoin="round"/>
<path d="M513.541 764.906L503.479 762.162L515.903 755.453" stroke="black" stroke-width="1.1669" stroke-linecap="round" stroke-linejoin="round"/>
<path d="M498.276 760.726L489.264 757.937L502.213 751.403" stroke="black" stroke-width="1.1669" stroke-linecap="round" stroke-linejoin="round"/>
<path d="M531.216 755.237L521.197 752.449L533.578 745.784" stroke="black" stroke-width="1.1669" stroke-linecap="round" stroke-linejoin="round"/>
<path d="M515.991 751.054L506.936 748.266L519.885 741.688" stroke="black" stroke-width="1.1669" stroke-linecap="round" stroke-linejoin="round"/>
<path d="M535.109 740.556L526.053 737.811L539.002 731.233" stroke="black" stroke-width="1.1669" stroke-linecap="round" stroke-linejoin="round"/>
</svg>
